<svg width="212" height="157" viewBox="0 0 212 157" fill="none" xmlns="http://www.w3.org/2000/svg">
<path d="M30.5601 95.4175C26.2268 111.751 23.4601 135.217 47.0601 98.4175C56.0601 88.7508 78.0601 55.6175 94.0601 0.41748C95.8935 26.4175 101.56 92.4175 115.56 108.417C122.56 118.417 130.06 120.834 130.06 95.4175C130.06 95.4175 133.06 58.9175 138.06 56.4175C145.727 71.7508 158.76 108.717 149.56 133.917C137.06 150.417 119.66 175.217 130.06 124.417C134.227 117.584 142.26 97.6175 161.06 90.4175L4.56012 84.9175C32.0601 106.417 102.66 141.217 165.06 108.417C199.227 93.0841 247.06 56.7175 165.06 33.9175C141.727 24.0841 88.1601 6.61748 60.5601 15.4175" stroke="black" stroke-width="3"/>
</svg>
